<svg width="362" height="203" xmlns="http://www.w3.org/2000/svg" fill="none" preserveAspectRatio="none" viewBox="0 0 362 203"><path fill="#231F20" d="M0 198.74h51.731v-23.536H27.46V1.624H0V198.74ZM58.486 198.74h51.728v-23.536h-24.27V1.624H58.486V198.74ZM157.548 101.5c0 15.53-.086 28.278-.247 38.247-.164 9.97-.531 17.816-1.103 23.536-.574 5.723-1.431 9.684-2.572 11.89-1.147 2.207-2.698 3.31-4.661 3.31-1.961 0-3.516-1.103-4.656-3.31-1.147-2.206-2.046-6.167-2.699-11.89-.653-5.72-1.064-13.566-1.225-23.536-.164-9.969-.245-22.717-.245-38.247 0-15.526.081-28.275.245-38.247.161-9.967.572-17.812 1.225-23.536.653-5.718 1.552-9.684 2.699-11.89 1.14-2.207 2.695-3.31 4.656-3.31 1.963 0 3.514 1.103 4.661 3.31 1.141 2.206 1.998 6.171 2.572 11.89.572 5.724.939 13.569 1.103 23.536.161 9.972.247 22.72.247 38.247Zm29.909 0c0-17.651-.734-32.89-2.206-45.723-1.47-12.83-3.761-23.372-6.864-31.629-3.106-8.25-7.111-14.342-12.016-18.264C161.471 1.961 155.665 0 148.965 0c-6.702 0-12.501 1.96-17.406 5.884-4.903 3.922-8.91 10.015-12.013 18.264-3.106 8.257-5.393 18.799-6.864 31.629-1.472 12.832-2.208 28.072-2.208 45.723 0 17.652.736 32.895 2.208 45.723 1.471 12.833 3.758 23.376 6.864 31.629 3.103 8.254 7.11 14.342 12.013 18.264 4.905 3.923 10.704 5.884 17.406 5.884 6.7 0 12.506-1.961 17.406-5.884 4.905-3.922 8.91-10.01 12.016-18.264 3.103-8.253 5.394-18.796 6.864-31.629 1.472-12.828 2.206-28.071 2.206-45.723ZM222.641 59.944a42.681 42.681 0 0 1-3.309-16.549c0-5.884.734-10.42 2.205-13.608 1.471-3.185 3.593-4.78 6.375-4.78 2.121 0 3.8 1.188 5.026 3.555 1.225 2.37 2.083 5.313 2.574 8.827.49 3.516.693 7.316.612 11.4-.083 4.088-.367 7.764-.856 11.033h25.742c.98-8.663.98-16.63 0-23.905-.981-7.27-2.903-13.564-5.761-18.878-2.861-5.31-6.581-9.476-11.155-12.503C239.515 1.513 234.04 0 227.668 0c-10.463 0-18.717 4.455-24.764 13.363-6.047 8.909-9.071 20.715-9.071 35.426 0 8.5 1.063 16.224 3.186 23.169 2.125 6.948 4.821 13.403 8.093 19.367 3.267 5.969 6.742 11.566 10.418 16.795a474.769 474.769 0 0 1 10.421 15.446c3.267 5.067 5.965 10.215 8.089 15.445 2.125 5.233 3.189 10.787 3.189 16.672 0 6.864-.858 12.178-2.575 15.936-1.716 3.761-4.21 5.639-7.477 5.639-2.451 0-4.334-1.142-5.64-3.433-1.31-2.287-2.247-5.352-2.819-9.194-.574-3.839-.858-8.09-.858-12.748 0-4.66.161-9.275.491-13.853h-26.233c-.653 7.52-.53 15.12.367 22.801.897 7.685 2.697 14.549 5.394 20.594 2.697 6.048 6.454 10.994 11.278 14.833 4.818 3.839 10.744 5.761 17.775 5.761 11.278 0 20.226-4.616 26.845-13.852 6.619-9.233 9.931-21.697 9.931-37.387 0-8.172-1.104-15.693-3.312-22.557-2.205-6.865-4.945-13.32-8.213-19.368a164.568 164.568 0 0 0-10.664-17.161 315.518 315.518 0 0 1-10.665-15.936c-3.272-5.23-6.008-10.5-8.213-15.814ZM322.951 163.772c-1.014 3.904-2.411 7.073-4.192 9.506-.23.316-.468.622-.713.913-2.123 2.536-4.578 3.8-7.355 3.8-3.761 0-6.618-2.368-8.579-7.11-1.963-4.739-2.942-12.339-2.942-22.8 0-4.414.121-8.293.367-11.645.196-2.676.443-5.194.744-7.559a112.07 112.07 0 0 1 1.707-9.971 116.641 116.641 0 0 1 2.085-8.09l18.878 52.956Zm-3.924-107.14c-.818 2.291-1.715 4.376-2.695 6.252a62.895 62.895 0 0 1-3.433 5.763c-1.801-5.23-3.108-10.378-3.923-15.447a93.35 93.35 0 0 1-1.225-14.955c0-11.278 2.287-16.917 6.862-16.917 1.963 0 3.596 1.311 4.905 3.924 1.306 2.615 1.961 7.03 1.961 13.239 0 3.921-.206 7.354-.611 10.297-.411 2.942-1.025 5.557-1.841 7.845ZM349.92 168.92l-3.19-8.09c3.758-8.988 6.538-17.366 8.336-25.13 1.797-7.761 3.105-15.323 3.924-22.678.325-4.249.53-7.355.614-9.317.081-1.961.122-4.492.122-7.6l-23.536-.735c.159 1.31.247 2.494.247 3.555v3.8c0 5.233-.247 10.258-.738 15.078a209.033 209.033 0 0 1-1.961 14.342l-13.484-41.434c7.356-8.17 13.075-16.303 17.163-24.394 4.082-8.09 6.128-17.61 6.128-28.562.16-11.279-2.452-20.388-7.846-27.336C330.306 3.473 323.276 0 314.613 0c-8.823 0-15.976 3.394-21.451 10.173-5.478 6.785-8.213 15.654-8.213 26.602 0 8.01 1.021 15.978 3.064 23.903 2.044 7.93 4.616 16.794 7.724 26.602-8.551 8.548-14.695 18.676-18.436 30.38-2.91 9.105-4.364 19.164-4.364 30.176 0 16.672 3.186 29.872 9.561 39.595 6.373 9.725 14.956 14.588 25.742 14.588 8.006 0 14.57-2.764 19.694-8.283 2.092-2.255 3.947-4.968 5.561-8.144 2.776 5.724 5.718 9.891 8.823 12.503 3.105 2.613 7.436 3.924 12.995 3.924.816 0 1.797-.043 2.943-.124 1.14-.084 2.121-.206 2.942-.367V176.03c-.821.165-1.883.245-3.189.245-1.471 0-2.902-.528-4.289-1.594-1.391-1.061-2.66-2.979-3.8-5.761Z"/></svg>