<svg width="150" height="150" viewBox="0 0 150 150" fill="none" xmlns="http://www.w3.org/2000/svg">
<path d="M120.562 20.8126L109.008 12.5391C107.789 11.6719 106.219 11.461 104.836 12L97.5 14.7657C96.2578 15.2344 95.6484 16.5938 96.0937 17.836L102.961 36.3751L120.562 20.8126Z" fill="#FD91BA"/>
<path d="M120.562 20.8125L96.7969 19.7578L102.937 36.375L110.578 25.6875L120.539 20.8125H120.562Z" fill="#FD91BA"/>
<path d="M38.25 68.2031L37.4766 53.1562L17.6016 41.1094C17.1329 41.5547 16.7813 42.1172 16.6641 42.7969L11.7657 68.9297C11.5547 70.1016 12.5157 71.1328 13.6875 70.9922L38.2735 68.1797L38.25 68.2031Z" fill="#8598AB"/>
<path d="M120.562 20.8125L119.109 32.6953L125.039 40.4531L137.602 33.3281C138.516 32.8125 138.539 31.4766 137.602 30.9375L120.562 20.8125Z" fill="#8598AB"/>
<path d="M120.562 20.8125L109.852 22.0547C108.164 22.2422 106.781 23.4375 106.289 25.0547L102.961 36.375L93.2812 65.4609L103.125 81.4687L131.859 84.375C131.977 83.6484 132 82.8984 131.859 82.1484L124.992 40.4297L120.539 20.7891L120.562 20.8125Z" fill="#FD91BA"/>
<path d="M69.3516 59.3203L49.6172 39.914C48.5391 38.8593 47.0625 38.3203 45.5391 38.414L19.4531 40.2656C18.7266 40.3125 18.0937 40.6172 17.5781 41.0859L38.25 68.1797L42.2344 73.3828L69.3516 59.2968V59.3203Z" fill="#8598AB"/>
<path d="M102 124.922L95.5781 128.25L95.5078 137.742C96.2109 138.047 96.9844 138.258 97.6172 138.258H110.086C111.047 138.258 111.586 137.156 111 136.383L102 124.898V124.922Z" fill="#8598AB"/>
<path d="M106.172 116.648L93.9844 111.117L75.9844 116.648L93.6563 136.5C94.1016 136.992 94.7813 137.437 95.5078 137.766L102 124.922L106.195 116.625L106.172 116.648Z" fill="#8598AB"/>
<path d="M131.883 84.3984L107.086 76.4297L77.2734 78.6797L62.8594 101.883C67.2422 106.805 71.6016 111.727 75.9844 116.625H106.172L111.844 116.578C113.32 116.578 114.68 115.758 115.383 114.492L131.086 86.5781C131.484 85.8984 131.742 85.1484 131.859 84.375L131.883 84.3984Z" fill="#8598AB"/>
<path d="M62.8595 101.883L107.086 76.4062L93.3048 65.4609L87.422 60.7969C86.2267 59.8359 84.7267 59.3203 83.1798 59.3203H52.7345C51.2579 59.3203 49.8985 60.0938 49.172 61.3828L42.2579 73.4063L35.3439 85.4297C34.6642 86.625 34.922 88.1484 35.9532 89.0391L53.7657 104.531C54.8439 105.469 56.3907 105.609 57.6095 104.906L62.8829 101.859L62.8595 101.883Z" fill="#8598AB"/>
<path d="M107.086 76.4297C92.3437 84.9141 77.6016 93.3984 62.8594 101.906L107.695 83.0156L131.906 84.4219L107.086 76.4531V76.4297Z" fill="#8598AB"/>
<path d="M120.562 20.8125L131.297 36.8906L125.016 40.4531L120.562 20.8125Z" fill="#8598AB"/>
<path d="M106.172 116.648L81.7266 123.117L75.9844 116.648H106.172Z" fill="#8598AB"/>
<path d="M95.5078 137.766L105.773 129.727L102 124.922L95.5078 137.766Z" fill="#8598AB"/>
<path d="M17.6016 41.1328L29.6016 69.2109L38.2734 68.2266L17.6016 41.1328Z" fill="#8598AB"/>
<path d="M110.391 10.6406C108.586 9.35157 106.219 8.97657 104.039 9.79688L96.7032 12.5625C94.2657 13.4766 93.0235 16.1953 93.9376 18.6328L100.5 36.3984L92.1329 61.5235L88.875 58.9453C87.2579 57.6563 85.2422 56.9531 83.1797 56.9531H70.336L51.2813 38.2266C49.711 36.7031 47.5782 35.9063 45.3985 36.0703L19.3126 37.9219C16.8516 38.0859 14.8126 39.9141 14.3672 42.3281L9.4688 68.4609C9.23443 69.7266 9.60943 71.0625 10.5001 72C11.3907 72.9375 12.6797 73.4297 13.9688 73.2656L37.2188 70.6172L39.4454 73.5235L33.3047 84.211C32.0626 86.3672 32.5313 89.1328 34.4063 90.7734L52.2188 106.266C54.0469 107.859 56.6954 108.117 58.7813 106.898L62.3907 104.813L91.9219 138C93.2344 139.477 95.6485 140.555 97.6407 140.555H110.109C112.031 140.555 113.602 138.984 113.602 137.063C113.602 136.289 113.344 135.516 112.852 134.906L104.766 124.594L107.648 118.922H111.891C114.188 118.875 116.344 117.609 117.469 115.594L133.172 87.7031C134.18 85.8984 134.555 83.7891 134.227 81.75L127.617 41.6484L138.75 35.3203C139.922 34.6641 140.625 33.4688 140.625 32.1094C140.625 30.7734 139.969 29.5547 138.797 28.875C118.547 16.8516 124.922 21 110.367 10.5938L110.391 10.6406ZM98.3438 16.9453L105.68 14.1797C106.359 13.9219 107.086 14.0391 107.648 14.4375L114.258 19.1719L106.805 20.0391C105.867 20.1563 105.094 20.8125 104.836 21.7031L102.727 28.8984L98.3438 16.9453ZM45.7266 40.7578C46.5704 40.6875 47.3907 40.9922 47.9766 41.5781L63.6329 56.9531H52.711C50.4141 56.9531 48.2579 58.1953 47.1094 60.1875L41.9532 69.1641L21.586 42.4688L45.7266 40.7578ZM18.4219 46.0547L33.8907 66.3281L14.2032 68.5781L18.4219 46.0547ZM56.4141 102.867C56.0391 103.078 55.5938 103.031 55.2657 102.75L37.4532 87.2578C37.2657 87.0938 37.2188 86.7891 37.336 86.5781L51.1641 62.5078C51.4688 61.9688 52.0547 61.6172 52.6876 61.6172H83.1329C84.1407 61.6172 85.125 61.9688 85.9219 62.5781L91.8047 67.2422L102.891 76.0547L56.3672 102.844L56.4141 102.867ZM81.211 118.945H102.375L99.9141 123.82L94.711 134.109L81.211 118.945ZM107.648 135.891H99.0469L102.422 129.234L107.648 135.891ZM113.367 113.297C113.063 113.836 112.477 114.188 111.844 114.188L77.0391 114.234L66.5157 102.422L107.344 78.9141L128.813 85.8281L113.344 113.297H113.367ZM129.352 81.0703L108.211 74.2735L96.0469 64.6172L108.914 24.4922L118.758 23.3438C123.727 45.2344 121.43 32.9063 129.352 81.0703ZM126.633 36.8203L124.078 25.5703L135 32.0625L126.633 36.8203Z" fill="black"/>
</svg>
